<?xml version="1.0" encoding="UTF-8" standalone="no"?>
<!-- Created with Inkscape (http://www.inkscape.org/) -->

<svg
   version="1.1"
   id="svg1"
   width="739"
   height="739"
   viewBox="0 0 739 739"
   sodipodi:docname="logo.svg"
   inkscape:version="1.3.2 (091e20e, 2023-11-25)"
   inkscape:export-filename="favicon.png"
   inkscape:export-xdpi="33.255753"
   inkscape:export-ydpi="33.255753"
   xmlns:inkscape="http://www.inkscape.org/namespaces/inkscape"
   xmlns:sodipodi="http://sodipodi.sourceforge.net/DTD/sodipodi-0.dtd"
   xmlns="http://www.w3.org/2000/svg"
   xmlns:svg="http://www.w3.org/2000/svg">
  <defs
     id="defs1" />
  <sodipodi:namedview
     id="namedview1"
     pagecolor="#ffffff"
     bordercolor="#000000"
     borderopacity="0.25"
     inkscape:showpageshadow="2"
     inkscape:pageopacity="0.0"
     inkscape:pagecheckerboard="0"
     inkscape:deskcolor="#d1d1d1"
     showgrid="false"
     inkscape:zoom="0.67846959"
     inkscape:cx="367.00245"
     inkscape:cy="322.04833"
     inkscape:window-width="1512"
     inkscape:window-height="856"
     inkscape:window-x="0"
     inkscape:window-y="38"
     inkscape:window-maximized="1"
     inkscape:current-layer="g1" />
  <g
     inkscape:groupmode="layer"
     inkscape:label="Image"
     id="g1">
    <path
       id="path1"
       style="display:inline;fill:#2f318f;fill-opacity:1"
       d="M 368.19141 23.798828 L 344.41406 30.478516 L 320.5 37.197266 L 299.05469 43.636719 L 277.61133 50.076172 L 262.05469 55.160156 L 246.5 60.246094 L 224.85938 68.068359 L 203.21875 75.888672 L 185.85938 82.837891 L 168.5 89.787109 L 154.5 95.972656 L 140.5 102.16016 L 120 112.62695 L 99.5 123.0957 L 92.533203 127.79883 L 85.566406 132.5 L 83.244141 137.0625 L 80.921875 141.62695 L 79.751953 154.0625 L 78.580078 166.5 L 78.542969 211.5 L 78.505859 256.5 L 79.804688 272.5 L 81.103516 288.5 L 83.101562 306 L 85.101562 323.5 L 87.027344 336.02734 L 88.951172 348.55664 L 92.009766 364.89258 L 95.068359 381.22852 L 98.53125 395.70117 L 101.99414 410.17383 L 106.48047 424.93359 L 110.96484 439.69336 L 115.89648 452.72461 L 120.82617 465.75781 L 127.79102 480.27734 L 134.75781 494.79492 L 140 504.14844 L 145.24219 513.5 L 153.27734 525.5 L 161.31445 537.5 L 167.38477 545.5 L 173.45508 553.5 L 185.11719 567 L 196.7793 580.5 L 213.14062 596.52539 L 229.5 612.54883 L 238 620.12305 L 246.5 627.69727 L 258.32617 637.37891 L 270.15234 647.0625 L 283.82617 657.34375 L 297.5 667.625 L 313 678.63281 L 328.5 689.64062 L 343 699.16992 L 357.5 708.70117 L 360 710.02344 L 362.5 711.34766 L 365.5 712.07227 L 368.19141 712.7207 L 368.19141 23.798828 z " />
    <path
       id="path18"
       style="display:inline;fill:#4c51c6;fill-opacity:1"
       d="M 368.19141 23.798828 L 368.19141 712.7207 L 368.5 712.79492 L 369.5 712.89258 L 370.5 712.98828 L 374.25391 711.94727 L 378.00586 710.9043 L 393.25391 700.8125 L 408.5 690.7207 L 426.5 677.87695 L 444.5 665.0332 L 461 652.33789 L 477.5 639.64258 L 489.48633 629.57031 L 501.47461 619.5 L 514.48633 607.40234 L 527.5 595.30469 L 537.08789 585.29492 L 546.67773 575.28516 L 554.47266 566.39258 L 562.26758 557.5 L 572.64258 543.64453 L 583.01758 529.78711 L 591.20117 516.64453 L 599.38477 503.5 L 607.57422 487.34961 L 615.76367 471.19922 L 620.80078 458.34961 L 625.83789 445.5 L 628.83594 436.5 L 631.83203 427.5 L 634.86328 417 L 637.89258 406.5 L 640.37891 396 L 642.86719 385.5 L 645.41016 373 L 647.95312 360.5 L 650.91602 342.5 L 653.88086 324.5 L 655.93164 308 L 657.98242 291.5 L 659.4668 271.81445 L 660.94922 252.12695 L 661.61133 224.81445 L 662.27344 197.5 L 661.08008 171.5 L 659.88672 145.5 L 658.94531 141.90039 L 658.00391 138.30273 L 655.73633 134.90039 L 653.4668 131.5 L 646.48438 126.77344 L 639.5 122.04883 L 619.5 112.0918 L 599.5 102.13281 L 585.5 95.951172 L 571.5 89.767578 L 552.5 82.279297 L 533.5 74.791016 L 515.5 68.269531 L 497.5 61.748047 L 473 53.84375 L 448.5 45.941406 L 429.5 40.369141 L 410.5 34.798828 L 394 29.851562 L 377.5 24.90625 L 372.91406 24.333984 L 368.33008 23.759766 L 368.19141 23.798828 z " />
    <path
       style="fill:#ffffff;fill-opacity:1"
       d="m 395.199,511.07776 9.69899,-2.098 8.80101,-3.10416 8.801,-3.10415 6,-2.9954 6,-2.99541 8.5,-5.59867 8.5,-5.59868 8.02225,-8.04165 8.02224,-8.04164 3.93691,-5.98457 3.9369,-5.98457 3.3649,-6.83028 3.3649,-6.83029 2.51584,-9.68515 2.51583,-9.68514 0.52398,-13.5 0.52398,-13.5 -1.63903,-9.39625 -1.63903,-9.39626 -3.02839,-7.60374 -3.02839,-7.60375 -4.10156,-7 -4.10155,-7 -10.09489,-10.07606 -10.09489,-10.07606 -8.94087,-5.83418 -8.94086,-5.83418 -11.05914,-5.22203 -11.05913,-5.22202 -23.5,-9.0408 -23.5,-9.0408 -8.13971,-3.4918 -8.13971,-3.4918 -6.52791,-4.12275 -6.52791,-4.12275 -3.69505,-4.08998 -3.69505,-4.08998 -2.12238,-4.62241 -2.12237,-4.6224 -0.015,-8 -0.0149,-8 2.77047,-5.64151 2.77047,-5.6415 4.57626,-4.21826 4.57627,-4.21826 7.15327,-3.27748 7.15326,-3.27749 5.29922,-1.11275 5.29922,-1.11275 8.20078,0.0349 8.20078,0.0349 7.5,1.34251 7.5,1.34251 9.19038,3.08356 9.19037,3.08356 10.28852,5.16302 10.28851,5.16302 7.35243,4.96137 7.35243,4.96136 0.29921,-0.33534 0.29921,-0.33535 11.71817,-27 11.71817,-27 0.1513,-1.91669 0.1513,-1.91669 -8,-5.81392 -8,-5.81392 -13,-6.47331 -13,-6.4733 -10,-2.92358 -10,-2.92357 -10.5,-1.82545 -10.5,-1.82545 -18.5,-0.003 -18.5,-0.003 -9.5,1.74899 -9.5,1.749 -10.17149,3.40324 -10.17148,3.40323 -6.32852,3.17779 -6.32851,3.17778 -6.94566,4.62625 -6.94566,4.62624 -7.64742,7.5 -7.64743,7.5 -4.22424,6.29427 -4.22424,6.29427 -3.89869,8.20573 -3.8987,8.20573 -2.63332,9 -2.63331,9 -0.51378,14 -0.51377,14 1.62847,9.33948 1.62848,9.33948 3.21422,8.13391 3.21423,8.13391 4.89357,7.52661 4.89357,7.52661 8.12684,8.03094 8.12684,8.03093 8.5,5.61203 8.5,5.61203 9,4.48941 9,4.48942 29.5,11.71805 29.5,11.71805 7.89104,4.08438 7.89103,4.08438 5.60897,4.13629 5.60896,4.13629 2.84996,4.12689 2.84996,4.12689 1.35614,3.80201 1.35615,3.80201 0.0439,7.09028 0.0439,7.09028 -3.06352,6.13065 -3.06352,6.13064 -4.61725,4.06427 -4.61725,4.06426 -6.32934,3.02072 -6.32934,3.02071 -7.23989,1.52341 -7.23989,1.52342 -11.57881,0.0133 -11.57881,0.0133 -8.69607,-1.6295 -8.69608,-1.6295 -8.72511,-3.04606 -8.72512,-3.04606 -8.5,-4.55369 -8.5,-4.55368 -5.8335,-3.95731 -5.83349,-3.95731 -6.98092,-6.0083 -6.98092,-6.00829 -0.34065,0.35226 -0.34066,0.35225 -15.52767,26.97858 -15.52766,26.97859 1.18273,1.42702 1.18274,1.42702 6.59557,5.26377 6.59557,5.26377 7.90443,5.18285 7.90443,5.18285 12,5.78976 12,5.78977 9.5,3.08524 9.5,3.08524 7,1.61247 7,1.61246 9.5,1.36804 9.5,1.36803 20,-0.36985 20,-0.36984 z"
       id="path17"
       inkscape:label="path17" />
  </g>
</svg>
