<?xml version="1.0" encoding="UTF-8" standalone="no"?>
<!-- Created with Inkscape (http://www.inkscape.org/) -->

<svg
   version="1.1"
   id="svg1"
   width="3200"
   height="739"
   viewBox="0 0 3200 739"
   xmlns="http://www.w3.org/2000/svg"
   xmlns:svg="http://www.w3.org/2000/svg">
  <defs
     id="defs1" />
  <g
     id="g1">
    <g
       id="g6">
      <path
         id="path1"
         style="display:inline;fill:#2f318f;fill-opacity:1"
         d="m 368.19141,23.798828 -23.77735,6.679688 -23.91406,6.71875 -21.44531,6.439453 -21.44336,6.439453 -15.55664,5.083984 -15.55469,5.085938 -21.64062,7.822265 -21.64063,7.820313 -17.35937,6.949219 -17.35938,6.949218 -14,6.185547 -14,6.187504 -20.5,10.46679 -20.5,10.46875 -6.966797,4.70313 -6.966797,4.70117 -2.322265,4.5625 -2.322266,4.56445 -1.169922,12.43555 -1.171875,12.4375 -0.03711,45 -0.03711,45 1.298829,16 1.298828,16 1.998046,17.5 2,17.5 1.925782,12.52734 1.923828,12.5293 3.058594,16.33594 3.058593,16.33594 3.462891,14.47265 3.462891,14.47266 4.48633,14.75976 4.48437,14.75977 4.93164,13.03125 4.92969,13.0332 6.96485,14.51953 6.96679,14.51758 5.24219,9.35352 5.24219,9.35156 8.03515,12 8.03711,12 6.07032,8 6.07031,8 11.66211,13.5 11.66211,13.5 16.36132,16.02539 16.35938,16.02344 8.5,7.57422 8.5,7.57422 11.82617,9.68164 11.82617,9.68359 13.67383,10.28125 13.67383,10.28125 15.5,11.00781 15.5,11.00781 14.5,9.5293 14.5,9.53125 2.5,1.32227 2.5,1.32422 3,0.72461 2.69141,0.64843 z" />
      <path
         id="path18"
         style="display:inline;fill:#4c51c6;fill-opacity:1"
         d="M 368.19141,23.798828 V 712.7207 l 0.30859,0.0742 1,0.0977 1,0.0957 3.75391,-1.04101 3.75195,-1.04297 15.24805,-10.0918 15.24609,-10.0918 18,-12.84375 18,-12.84375 L 461,652.33791 477.5,639.6426 489.48633,629.57033 501.47461,619.5 514.48633,607.40234 527.5,595.30469 l 9.58789,-10.00977 9.58984,-10.00976 7.79493,-8.89258 7.79492,-8.89258 10.375,-13.85547 10.375,-13.85742 8.18359,-13.14258 8.1836,-13.14453 8.18945,-16.15039 8.18945,-16.15039 5.03711,-12.84961 5.03711,-12.84961 2.99805,-9 2.99609,-9 3.03125,-10.5 3.0293,-10.5 2.48633,-10.5 2.48828,-10.5 2.54297,-12.5 2.54296,-12.5 2.9629,-18 2.96484,-18 2.05078,-16.5 2.05078,-16.5 1.48438,-19.68555 1.48242,-19.6875 0.66211,-27.3125 0.66211,-27.31445 -1.19336,-26 -1.19336,-26 -0.94141,-3.59961 -0.9414,-3.59766 -2.26758,-3.40234 -2.26953,-3.40039 -6.98242,-4.72656 -6.98438,-4.72461 -20,-9.95703 -20,-9.95899 -14,-6.181638 -14,-6.183594 -19,-7.488281 -19,-7.488281 -18,-6.521485 -18,-6.521484 -24.5,-7.904297 -24.5,-7.902344 -19,-5.572265 -19,-5.570313 -16.5,-4.947266 -16.5,-4.945312 -4.58594,-0.572266 -4.58398,-0.574218 z" />
      <path
         style="fill:#ffffff;fill-opacity:1"
         d="m 395.199,511.07776 9.69899,-2.098 8.80101,-3.10416 8.801,-3.10415 6,-2.9954 6,-2.99541 8.5,-5.59867 8.5,-5.59868 8.02225,-8.04165 8.02224,-8.04164 3.93691,-5.98457 3.9369,-5.98457 3.3649,-6.83028 3.3649,-6.83029 2.51584,-9.68515 2.51583,-9.68514 0.52398,-13.5 0.52398,-13.5 -1.63903,-9.39625 -1.63903,-9.39626 -3.02839,-7.60374 -3.02839,-7.60375 -4.10156,-7 -4.10155,-7 -10.09489,-10.07606 -10.09489,-10.07606 -8.94087,-5.83418 -8.94086,-5.83418 -11.05914,-5.22203 -11.05913,-5.22202 -23.5,-9.0408 -23.5,-9.0408 -8.13971,-3.4918 -8.13971,-3.4918 -6.52791,-4.12275 -6.52791,-4.12275 -3.69505,-4.08998 -3.69505,-4.08998 -2.12238,-4.62241 -2.12237,-4.6224 -0.015,-8 -0.0149,-8 2.77047,-5.64151 2.77047,-5.6415 4.57626,-4.21826 4.57627,-4.21826 7.15327,-3.27748 7.15326,-3.27749 5.29922,-1.11275 5.29922,-1.11275 8.20078,0.0349 8.20078,0.0349 7.5,1.34251 7.5,1.34251 9.19038,3.08356 9.19037,3.08356 10.28852,5.16302 10.28851,5.16302 7.35243,4.96137 7.35243,4.96136 0.29921,-0.33534 0.29921,-0.33535 11.71817,-27 11.71817,-27 0.1513,-1.91669 0.1513,-1.91669 -8,-5.81392 -8,-5.81392 -13,-6.47331 -13,-6.4733 -10,-2.92358 -10,-2.92357 -10.5,-1.82545 -10.5,-1.82545 -18.5,-0.003 -18.5,-0.003 -9.5,1.74899 -9.5,1.749 -10.17149,3.40324 -10.17148,3.40323 -6.32852,3.17779 -6.32851,3.17778 -6.94566,4.62625 -6.94566,4.62624 -7.64742,7.5 -7.64743,7.5 -4.22424,6.29427 -4.22424,6.29427 -3.89869,8.20573 -3.8987,8.20573 -2.63332,9 -2.63331,9 -0.51378,14 -0.51377,14 1.62847,9.33948 1.62848,9.33948 3.21422,8.13391 3.21423,8.13391 4.89357,7.52661 4.89357,7.52661 8.12684,8.03094 8.12684,8.03093 8.5,5.61203 8.5,5.61203 9,4.48941 9,4.48942 29.5,11.71805 29.5,11.71805 7.89104,4.08438 7.89103,4.08438 5.60897,4.13629 5.60896,4.13629 2.84996,4.12689 2.84996,4.12689 1.35614,3.80201 1.35615,3.80201 0.0439,7.09028 0.0439,7.09028 -3.06352,6.13065 -3.06352,6.13064 -4.61725,4.06427 -4.61725,4.06426 -6.32934,3.02072 -6.32934,3.02071 -7.23989,1.52341 -7.23989,1.52342 -11.57881,0.0133 -11.57881,0.0133 -8.69607,-1.6295 -8.69608,-1.6295 -8.72511,-3.04606 -8.72512,-3.04606 -8.5,-4.55369 -8.5,-4.55368 -5.8335,-3.95731 -5.83349,-3.95731 -6.98092,-6.0083 -6.98092,-6.00829 -0.34065,0.35226 -0.34066,0.35225 -15.52767,26.97858 -15.52766,26.97859 1.18273,1.42702 1.18274,1.42702 6.59557,5.26377 6.59557,5.26377 7.90443,5.18285 7.90443,5.18285 12,5.78976 12,5.78977 9.5,3.08524 9.5,3.08524 7,1.61247 7,1.61246 9.5,1.36804 9.5,1.36803 20,-0.36985 20,-0.36984 z"
         id="path17" />
    </g>
    <g
       id="text1"
       style="font-weight:bold;font-size:400px;font-family:Helvetica;-inkscape-font-specification:'Helvetica Bold';letter-spacing:0px;fill:#1f2937;stroke-width:1.00913"
       aria-label="SIA Checker">
      <path
         style="font-family:Inter;-inkscape-font-specification:'Inter Bold';letter-spacing:-2px"
         d="m 971.8241,518.56934 q -37.30469,0 -63.67188,-11.71875 -26.36719,-11.91407 -40.42969,-34.375 -14.0625,-22.46094 -14.0625,-54.10157 h 58.00782 q 0.39062,16.01563 7.61718,27.34375 7.42188,11.32813 20.89844,17.38282 13.47656,6.05468 32.03125,6.05468 16.79688,0 29.10158,-4.49218 12.5,-4.6875 19.3359,-13.08594 7.0313,-8.39844 7.0313,-19.72656 0,-9.375 -5.4688,-16.21094 -5.2734,-7.03125 -16.7969,-12.30469 -11.32808,-5.27344 -29.88277,-9.17969 l -30.66406,-6.64062 q -43.35937,-9.375 -64.45312,-29.49219 -21.09375,-20.11719 -21.09375,-51.36719 0,-26.5625 13.86718,-46.28906 13.86719,-19.92187 38.67188,-31.05469 25,-11.13281 58.00781,-11.13281 33.39843,0 57.81253,11.32813 24.414,11.32812 37.8906,32.42187 13.6719,20.89844 14.6484,50.19531 h -56.25 q -1.5625,-20.70312 -16.0156,-32.61718 -14.45312,-11.91407 -37.89062,-11.91407 -14.64843,0 -26.17187,4.6875 -11.32813,4.49219 -17.96875,12.69532 -6.44531,8.20312 -6.44531,18.75 0,8.98437 5.07812,15.625 5.07813,6.44531 16.21094,11.32812 11.13281,4.88281 28.90625,8.78906 l 27.92969,6.05469 q 23.24215,5.07813 40.23435,12.5 16.9922,7.22656 27.9297,17.38281 10.9375,9.96094 16.2109,23.04688 5.2735,13.08594 5.2735,29.49219 0,27.92968 -14.0625,48.4375 -13.8672,20.3125 -39.8438,31.25 -25.7812,10.9375 -61.5234,10.9375 z m 208.9375,-295.70313 v 291.01563 h -60.1563 V 222.86621 Z m 21.4375,291.01563 102.1484,-291.01563 h 77.3438 l 102.1484,291.01563 h -66.6015 L 1371.535,372.28027 q -8.3984,-27.92968 -17.3828,-57.42187 -8.789,-29.6875 -19.1406,-67.38281 h 16.6016 q -10.7422,37.69531 -19.7266,67.38281 -8.7891,29.49219 -17.5781,57.42187 l -47.2657,141.60157 z m 64.8437,-63.47657 V 402.3584 h 152.1485 v 48.04687 z"
         id="path2" />
      <path
         style="font-family:Inter;-inkscape-font-specification:'Inter Bold';letter-spacing:4px"
         d="m 1720.121,518.56934 q -39.8438,0 -71.2891,-18.16407 -31.25,-18.35937 -49.2187,-51.95312 -17.7735,-33.78906 -17.7735,-79.88281 0,-46.48438 17.7735,-80.27344 17.9687,-33.78906 49.2187,-51.95313 31.4453,-18.16406 71.2891,-18.16406 25.5859,0 47.4609,7.61719 21.875,7.61719 38.6719,21.67969 16.9922,14.0625 27.7344,33.78906 10.7421,19.72656 14.2578,44.14062 h -60.7422 q -2.5391,-12.89062 -8.3985,-22.85156 -5.8593,-10.15625 -14.4531,-16.99219 -8.5937,-7.03125 -19.7265,-10.54687 -10.9375,-3.71094 -24.0235,-3.71094 -24.8047,0 -42.3828,11.91406 -17.3828,11.91407 -26.7578,33.78907 -9.375,21.67968 -9.375,51.5625 0,29.6875 9.1797,51.36718 9.375,21.67969 26.9531,33.59375 17.5781,11.91407 42.3828,11.91407 13.086,0 24.0235,-3.51563 10.9375,-3.51562 19.5312,-10.54687 8.5938,-7.03125 14.4531,-16.99219 5.8594,-9.96094 8.7891,-22.65625 h 60.5469 q -3.5157,24.21875 -14.2578,43.94531 -10.7422,19.72656 -27.7344,33.78906 -16.9922,14.0625 -38.8672,21.67969 -21.6797,7.42188 -47.2656,7.42188 z M 1941.8944,399.2334 v 114.64844 h -57.6172 V 222.86621 h 57.6172 v 138.47656 h -10.7422 q 9.7656,-27.34375 27.9297,-42.57812 18.1641,-15.42969 46.2891,-15.42969 22.0703,0 38.2812,9.57031 16.211,9.375 25,27.53907 8.9844,18.16406 8.9844,44.33593 v 129.10157 h -57.4219 V 395.32715 q 0,-20.70313 -9.9609,-31.44531 -9.7656,-10.9375 -27.9297,-10.9375 -11.9141,0 -21.0938,4.88281 -9.1796,4.88281 -14.2578,15.23437 -5.0781,10.15625 -5.0781,26.17188 z m 274.7031,119.33594 q -31.25,0 -54.4922,-13.67188 -23.0468,-13.86719 -35.9375,-38.28125 -12.6953,-24.41406 -12.6953,-55.66406 0,-31.64063 12.8907,-55.85938 13.0859,-24.41406 35.9375,-38.28125 22.8515,-13.86718 52.3437,-13.86718 22.8516,0 41.4063,7.8125 18.5546,7.61718 32.0312,22.07031 13.4766,14.25781 20.7031,33.78906 7.4219,19.53125 7.4219,43.16406 v 15.42969 h -182.2266 v -36.71875 h 154.4922 l -25.9765,8.78906 q 0,-15.625 -5.6641,-26.95312 -5.6641,-11.32813 -16.2109,-17.38281 -10.3516,-6.25 -24.8047,-6.25 -14.2578,0 -24.6094,6.25 -10.3516,6.05468 -16.0156,17.38281 -5.6641,11.32812 -5.6641,26.95312 v 25 q 0,16.01563 5.6641,28.125 5.8594,11.91407 16.7969,18.55469 10.9375,6.44531 26.3671,6.44531 11.3282,0 19.9219,-3.125 8.7891,-3.32031 14.6485,-9.17968 6.0546,-6.05469 8.5937,-14.0625 h 52.5391 q -3.711,20.50781 -17.3828,36.13281 -13.6719,15.625 -34.375,24.60937 -20.7032,8.78907 -45.7032,8.78907 z m 229,0 q -30.8593,0 -54.2968,-13.47657 -23.2422,-13.67187 -36.3282,-37.89062 -12.8906,-24.41406 -12.8906,-56.25 0,-32.03125 12.8906,-56.25 13.086,-24.41406 36.3282,-38.08594 23.4375,-13.67187 54.2968,-13.67187 20.3125,0 37.5,6.05468 17.1875,5.85938 29.8828,16.79688 12.8907,10.9375 20.5079,25.97656 7.6171,14.84375 8.9843,33.00781 h -55.664 q -1.1719,-8.00781 -4.4922,-14.45312 -3.125,-6.44531 -8.2031,-11.13281 -5.0782,-4.6875 -12.1094,-7.22657 -6.836,-2.53906 -15.625,-2.53906 -14.4531,0 -24.8047,7.61719 -10.3516,7.42187 -16.0156,21.28906 -5.4688,13.67188 -5.4688,32.61719 0,18.75 5.4688,32.42187 5.664,13.67188 16.0156,21.28907 10.3516,7.42187 24.8047,7.42187 8.789,0 15.625,-2.53906 6.8359,-2.53906 11.7187,-7.22656 5.0782,-4.6875 8.2032,-11.13282 3.125,-6.64062 4.4921,-14.84375 h 56.0547 q -0.9765,17.96875 -8.5937,33.00782 -7.4219,14.84375 -20.3125,25.97656 -12.8906,11.13281 -30.2735,17.1875 -17.1875,6.05469 -37.6953,6.05469 z m 183.6875,-64.0625 v -67.96875 h 6.0547 l 72.2656,-78.90625 h 67.5782 l -93.5547,103.71093 h -13.2813 z m -52.1484,59.375 V 222.86621 h 57.6172 v 291.01563 z m 134.9609,0 -65.2343,-89.84375 38.0859,-40.03907 94.5312,129.88282 z m 174.3125,4.6875 q -31.25,0 -54.4922,-13.67188 -23.0468,-13.86719 -35.9375,-38.28125 -12.6953,-24.41406 -12.6953,-55.66406 0,-31.64063 12.8907,-55.85938 13.0859,-24.41406 35.9375,-38.28125 22.8515,-13.86718 52.3437,-13.86718 22.8516,0 41.4063,7.8125 18.5546,7.61718 32.0312,22.07031 13.4766,14.25781 20.7031,33.78906 7.4219,19.53125 7.4219,43.16406 v 15.42969 h -182.2266 v -36.71875 h 154.4922 l -25.9765,8.78906 q 0,-15.625 -5.6641,-26.95312 -5.6641,-11.32813 -16.2109,-17.38281 -10.3516,-6.25 -24.8047,-6.25 -14.2578,0 -24.6094,6.25 -10.3516,6.05468 -16.0156,17.38281 -5.6641,11.32812 -5.6641,26.95312 v 25 q 0,16.01563 5.6641,28.125 5.8594,11.91407 16.7969,18.55469 10.9375,6.44531 26.3671,6.44531 11.3282,0 19.9219,-3.125 8.7891,-3.32031 14.6485,-9.17968 6.0546,-6.05469 8.5937,-14.0625 h 52.5391 q -3.711,20.50781 -17.3828,36.13281 -13.6719,15.625 -34.375,24.60937 -20.7032,8.78907 -45.7032,8.78907 z m 134.4688,-4.6875 v -206.25 h 55.4687 v 35.15625 h 0.586 q 5.664,-18.55469 17.7734,-27.53907 12.1094,-8.98437 32.6172,-8.98437 5.0781,0 9.1797,0.19531 4.2969,0 7.8125,0.19531 v 49.02344 q -3.125,-0.19531 -10.3516,-0.58594 -7.0312,-0.39062 -14.4531,-0.39062 -11.7188,0 -21.0938,5.46875 -9.375,5.27344 -14.6484,15.82031 -5.2734,10.54688 -5.2734,26.17188 v 111.71875 z"
         id="path3" />
    </g>
  </g>
</svg>
